PathFileType	4	(X/Y/Z)	C:/Users/opensim2020/Desktop/walking_exp_matlab/subject06_cal10_run.trc																																																																																																																																																	
DataRate	CameraRate	NumFrames	NumMarkers	Units	OrigDataRate	OrigDataStartFrame	OrigNumFrames																																																																																																																																													
100	100	9	49	mm	100	228	118																																																																																																																																													
Frame#	Time	LKNE			RTIB			RFRM			RWRA			LTHI			RKNE			RELB			RFHD			LWRA			RUPA			STRN			RASI			CLAV			RSHO			LASI			RTHI			RBHD			LBHD			C7			RWRB			RFIN			RTOE			LSHO			RBAK			LTIB			RANK			LFIN			LANK			RHEE			T10			LHEE			LTOE			LFHD			LPSI			RPSI			LUPA			LELB			LFRM			LWRB			*39			*40			*41			*42			*43			*44			*45			*46			*47			*48		
		X1	Y1	Z1	X2	Y2	Z2	X3	Y3	Z3	X4	Y4	Z4	X5	Y5	Z5	X6	Y6	Z6	X7	Y7	Z7	X8	Y8	Z8	X9	Y9	Z9	X10	Y10	Z10	X11	Y11	Z11	X12	Y12	Z12	X13	Y13	Z13	X14	Y14	Z14	X15	Y15	Z15	X16	Y16	Z16	X17	Y17	Z17	X18	Y18	Z18	X19	Y19	Z19	X20	Y20	Z20	X21	Y21	Z21	X22	Y22	Z22	X23	Y23	Z23	X24	Y24	Z24	X25	Y25	Z25	X26	Y26	Z26	X27	Y27	Z27	X28	Y28	Z28	X29	Y29	Z29	X30	Y30	Z30	X31	Y31	Z31	X32	Y32	Z32	X33	Y33	Z33	X34	Y34	Z34	X35	Y35	Z35	X36	Y36	Z36	X37	Y37	Z37	X38	Y38	Z38	X39	Y39	Z39	X40	Y40	Z40	X41	Y41	Z41	X42	Y42	Z42	X43	Y43	Z43	X44	Y44	Z44	X45	Y45	Z45	X46	Y46	Z46	X47	Y47	Z47	X48	Y48	Z48	X49	Y49	Z49
																																																																																																																																																				
60	0.59	132.25226	573.36035	-297.21228	367.57294	402.01123	224.35297	481.93365	1162.98096	-249.64499	358.36279	1218.49609	-292.91852	88.6864	709.2207	-216.41055	371.8298	544.87805	-5.71408	563.76123	1185.39661	-189.0507	314.8241	1685.39392	-275.99963	67.79285	1170.80713	-139.31531	531.48083	1292.83521	-181.85661	234.94637	1229.99219	-258.13953	365.59702	987.53497	-208.99071	240.97382	1408.94604	-232.06961	401.68134	1452.76892	-219.10059	156.28516	997.98969	-204.9666	399.38824	663.84326	-52.2058	313.99603	1641.81458	-141.59088	184.47479	1645.29285	-139.29648	259.81116	1495.47144	-133.87051	373.24048	1163.21057	-325.06998	327.31366	1212.56177	-370.21201	301.86218	150.02603	377.12601	103.30742	1461.47046	-146.33711	358.63907	1338.38477	-62.46463	161.22746	323.11786	-329.64914	326.84528	311.50549	384.88828	52.63276	1104.89612	-206.75064	216.15038	159.11952	-373.32828	287.00641	341.31738	418.87109	282.07376	1176.85901	-64.92132	266.02332	153.16573	-336.34204	237.65953	118.96804	-523.94611	182.71861	1694.34351	-274.28195	184.51065	1046.09412	-56.90017	350.96048	1038.01514	-68.11594	17.33429	1346.98938	-16.76254	-8.2464	1276.64783	61.21951	-2.96119	1180.32629	-27.66822	33.90709	1113.27161	-116.98062							242.16821	176.69173	1738.31238																					 
61	0.6	134.32271	565.66925	-327.36703	369.40195	399.7207	176.30583	484.36145	1158.46521	-284.71313	359.49591	1208.32104	-331.21741	90.76345	703.53265	-248.77396	373.54556	538.48151	-55.07309	564.14734	1184.67371	-222.73624	313.65781	1682.84973	-313.77359	69.97366	1165.96143	-182.37524	531.99316	1292.37366	-218.21657	235.30046	1226.9259	-296.47852	367.44394	986.05841	-247.47691	240.31398	1405.95422	-270.70697	400.66885	1450.40698	-258.05069	157.82733	995.57587	-243.3429	400.86517	658.9035	-97.93609	312.44446	1638.73914	-179.39149	182.90273	1642.13977	-177.6358	258.41647	1492.49646	-172.36768	377.09811	1153.19165	-362.17157	330.15552	1199.86682	-409.06958	307.73532	154.71382	330.43539	101.95772	1457.59778	-185.48265	358.05783	1336.77246	-100.68583	164.62712	315.31454	-357.77426	329.55408	314.91605	340.28235	56.82332	1100.03149	-250.85944	219.39471	150.8116	-399.36346	289.05508	344.63892	375.33023	283.0311	1174.9259	-102.81245	268.86649	146.1351	-362.46759	242.37534	106.0833	-548.46906	181.48863	1691.64832	-312.43268	187.40529	1042.89673	-95.03366	353.72095	1035.18164	-106.538	16.12367	1340.35986	-57.31408	-9.41103	1267.8822	18.83193	-1.90728	1172.73425	-71.24227	36.76254	1107.59692	-161.10591							240.66484	214.55681	1735.30188																					 
62	0.61	136.3835	557.53412	-357.73938	371.56528	396.45502	126.88553	486.81287	1152.67212	-319.1857	361.47131	1196.82593	-369.9476	93.84679	698.21985	-282.14911	375.37897	531.03583	-105.55907	564.34869	1183.29382	-256.02563	312.57803	1679.2345	-351.33398	72.02781	1159.99841	-226.36629	531.00641	1291.13293	-252.93652	235.58734	1222.80249	-334.93277	369.54947	983.60126	-285.79123	239.7245	1401.98914	-309.48096	399.34738	1447.16467	-296.6441	159.14914	992.21136	-281.70279	402.612	652.94238	-144.14735	310.90698	1634.72937	-217.36296	181.36391	1638.04529	-215.87843	256.87326	1488.63611	-210.76143	381.39642	1141.35217	-398.68695	333.80267	1184.98413	-447.94107	314.28409	158.34045	281.97455	100.69538	1452.59644	-224.35506	357.54779	1334.42664	-138.76804	168.01193	306.36078	-383.36728	332.48074	317.46121	293.68405	60.75615	1094.77148	-295.6604	222.2684	141.0578	-421.1438	291.32535	346.8024	329.60977	284.24997	1172.21655	-140.94421	271.19983	137.19786	-383.73776	246.94467	92.35437	-568.7182	180.4917	1687.96252	-350.52808	190.54189	1039.00757	-132.69374	356.50812	1031.63367	-144.85039	14.58691	1332.40674	-98.37538	-10.83617	1257.65527	-24.27022	-1.18244	1163.8429	-115.77381	39.85893	1100.69604	-206.62457							239.24628	252.29848	1731.38843																					 
63	0.62	138.6021	549.18542	-388.90955	374.0983	392.45502	76.18227	489.37262	1145.46936	-352.99756	364.03171	1183.6908	-408.31653	97.72783	692.77722	-316.5195	377.63052	522.70825	-157.0993	563.90723	1181.02588	-288.29114	311.67914	1674.65149	-388.68671	74.19193	1152.94641	-270.81824	530.58087	1289.25183	-287.88297	236.41428	1217.81995	-373.31192	371.99866	979.98993	-323.79562	239.172	1397.04822	-348.29156	398.00507	1443.06006	-334.75214	160.34425	987.83716	-320.13577	404.7309	646.05841	-190.82875	309.48627	1629.69141	-254.90709	179.89601	1632.93652	-253.97757	255.15341	1483.7334	-249.16168	386.42639	1127.86963	-434.8103	338.52264	1167.974	-486.36359	321.43002	160.69649	232.00677	99.42574	1446.65332	-263.61566	357.03351	1331.26672	-176.57401	171.15167	296.45523	-406.30389	335.59494	318.76105	245.13773	65.16467	1088.32483	-341.01929	225.01843	130.11325	-438.60089	293.72513	347.8175	281.59619	285.45691	1168.72644	-178.94234	273.52527	126.90656	-401.06073	249.93228	77.60032	-584.71741	179.58592	1683.29346	-388.492	193.46411	1033.94971	-170.4478	359.28802	1027.03796	-182.74498	12.85777	1323.10693	-139.9852	-12.63437	1245.99939	-68.19112	-0.80719	1153.59216	-161.46048	42.73954	1092.58984	-252.88718							237.92499	289.867	1726.45361																					 
64	0.63	141.10767	540.61761	-421.01675	377.02798	387.35318	23.72723	492.17337	1136.90491	-386.23816	367.51407	1169.12134	-446.38657	102.24834	686.83179	-352.09589	380.63272	513.60034	-209.70842	563.26331	1177.70642	-320.10239	310.83218	1669.00293	-425.59647	76.34926	1145.15173	-315.83789	529.54553	1286.12146	-321.98212	237.44565	1211.76086	-411.76819	374.66702	975.34326	-361.83859	238.69879	1391.15637	-387.17804	396.71487	1438.02795	-372.19174	161.5148	982.36957	-358.58261	407.43863	638.21075	-237.91461	308.07632	1623.67664	-292.18582	178.49641	1626.823	-291.96262	253.34413	1477.82349	-287.29803	391.44992	1112.58752	-469.37402	344.23282	1149.26917	-524.3717	328.95593	161.79492	180.46074	98.1347	1439.56018	-302.88034	356.29654	1327.1449	-214.15831	173.20569	286.12234	-427.77032	339.15213	318.79788	194.62321	68.88244	1081.86816	-387.30286	227.17778	118.4447	-452.55533	296.52139	347.55252	231.5233	286.53696	1164.23755	-216.77943	275.69156	116.65411	-415.00772	252.40869	60.53291	-596.3064	178.87933	1677.68713	-426.30008	196.12903	1027.70874	-208.16264	361.50861	1021.46149	-221.29295	10.76262	1312.47571	-182.21506	-14.68429	1233.13	-112.89123	-0.42387	1142.62671	-207.54814	45.13655	1084.41479	-298.85947							236.61383	327.15631	1720.4939																					 
65	0.64	143.74866	531.42804	-453.63474	380.43088	381.48706	-30.35828	495.25955	1127.20996	-418.84576	371.9556	1153.31885	-484.06787	107.09888	679.98444	-388.99429	384.20697	503.82947	-263.13065	562.02979	1173.31812	-350.96329	310.40482	1662.60193	-462.27271	78.51687	1136.97485	-361.45032	528.18109	1282.10425	-355.35394	238.48871	1204.74023	-450.63892	377.46182	969.52661	-399.48361	238.45842	1384.32349	-426.10397	395.67139	1432.10449	-408.96655	163.00401	975.76501	-396.98413	410.68051	629.64276	-285.37363	306.64124	1616.68091	-329.01529	177.04921	1619.64221	-329.81113	251.43059	1470.83899	-325.39886	397.47577	1096.11108	-503.38791	351.46344	1129.09583	-561.63623	336.51221	161.64832	126.72157	96.74453	1431.29492	-342.55621	355.1254	1321.94324	-251.57506	173.89122	275.60138	-448.72244	343.16406	317.59772	142.2198	73.21571	1074.73047	-434.43497	227.80676	106.4247	-463.84265	300.03229	346.08881	179.41951	287.36902	1158.53345	-255.15222	276.08478	106.28266	-425.74295	255.17244	41.48407	-604.12738	178.44336	1671.10095	-463.90707	198.67613	1020.5271	-246.00137	363.77188	1014.83649	-259.18661	8.51554	1300.3761	-225.2267	-17.0742	1219.27441	-158.49484	-0.23248	1130.77234	-254.84387	48.02855	1075.22839	-346.08557							235.34398	364.17059	1713.55139																					 
66	0.65	145.62839	520.65466	-485.50461	384.22064	375.09937	-86.08488	498.71576	1116.23145	-450.53625	377.03772	1136.26978	-520.61395	111.06725	671.60925	-426.3262	388.48441	493.75146	-317.53488	560.62225	1167.92188	-381.20557	310.21527	1655.37024	-498.53021	80.70445	1128.32397	-407.4191	527.21478	1276.83765	-388.35199	239.6965	1196.88391	-489.70847	380.12225	962.77148	-437.06558	238.41006	1376.63562	-464.99911	395.00876	1425.32312	-444.91318	164.89818	967.98303	-435.52069	414.51605	620.6004	-333.27121	305.30795	1608.72388	-365.52679	175.66208	1611.38977	-367.59772	249.52374	1462.68164	-363.38373	404.19592	1078.53406	-536.40057	359.17065	1107.17822	-596.52643	343.77344	160.40288	69.81761	95.2136	1421.82495	-382.61804	353.40555	1315.36108	-288.5802	172.80772	264.16241	-468.95837	347.81271	315.13245	87.5526	77.7727	1067.41577	-481.83975	228.78722	94.46232	-472.25961	304.38708	343.50323	125.28764	287.54843	1151.40723	-293.01944	271.57828	91.18755	-430.42801	261.27045	35.22252	-616.63208	178.23412	1663.5946	-501.34927	200.67636	1012.20007	-284.11816	365.88223	1007.12579	-296.6781	6.00698	1286.91968	-269.20956	-19.6209	1204.42725	-205.01044	0.23229	1118.21387	-302.58832	51.13097	1065.81604	-393.96936							234.06544	400.82837	1705.63232																					 
67	0.66	147.83789	508.48001	-516.33362	388.36386	368.43796	-143.84752	502.60101	1104.50208	-481.32211	383.27963	1118.66089	-556.19739	113.03183	660.83276	-461.91647	393.28958	483.64218	-373.49377	559.1665	1161.83838	-410.97812	310.27664	1647.62891	-534.32153	82.48975	1119.78442	-453.98001	526.29315	1270.41418	-420.04877	241.28702	1188.16113	-528.77686	382.81042	955.02673	-474.46646	238.5024	1368.18762	-503.81165	394.67175	1417.53064	-480.23264	167.37581	958.95258	-473.65631	418.89505	611.16058	-382.04059	304.00974	1599.95654	-401.72955	174.42767	1602.26782	-405.17365	247.64888	1453.73718	-400.97528	411.86292	1060.50623	-568.31671	369.10852	1085.3429	-631.24158	350.82535	158.67407	10.64478	93.37768	1411.46216	-423.17703	351.1969	1307.32593	-325.08612	172.32985	251.22194	-485.63379	352.82355	311.76141	30.61578	82.88972	1060.00488	-529.49817	229.96887	83.89295	-477.34409	309.32162	339.94458	69.04133	287.18069	1142.92322	-330.78909	268.40356	80.3247	-429.53488	265.21326	34.67727	-618.84216	178.04472	1655.58191	-538.49084	201.94548	1003.39203	-321.97989	367.64117	998.58704	-333.6442	3.14443	1272.3009	-314.39825	-22.42137	1188.61218	-252.16756	0.8536	1105.33691	-350.72116	54.46508	1056.09521	-442.276							232.83252	437.11996	1696.93311																					 
68	0.67	151.15651	496.62674	-548.25458	392.91794	361.90704	-203.92374	507.44009	1092.35461	-511.16068	390.54156	1101.35718	-590.3526	114.81637	648.2417	-494.77386	398.32809	474.06012	-431.08917	558.56689	1155.07837	-440.52228	310.75751	1639.87415	-569.87946	84.09612	1111.41235	-501.08444	525.96619	1262.93616	-450.78558	243.01155	1178.93286	-567.69879	385.36624	946.27563	-511.2139	238.77676	1359.34546	-542.6615	394.93256	1409.12402	-515.16144	170.15564	949.38483	-511.24094	423.52576	601.88354	-432.05887	302.87259	1590.76306	-437.77402	173.31654	1592.87561	-442.75153	245.41336	1444.22546	-437.61249	420.63599	1042.8418	-599.22284	380.17114	1064.07251	-664.47266	358.12787	156.16647	-51.47306	91.1117	1400.49011	-464.21356	348.25909	1297.90247	-361.02652	174.31454	241.43456	-501.19006	358.13458	307.8797	-28.77851	88.5196	1052.97485	-577.60004	231.59898	76.22434	-472.04291	314.50714	335.66495	10.2779	286.30554	1133.20715	-368.31006	269.54712	72.48526	-425.28079	267.74091	34.3829	-615.54321	178.33057	1647.54553	-575.54993	202.19922	994.45532	-359.13873	369.03207	989.66547	-369.85001	0.33054	1256.66931	-360.38684	-25.43993	1172.2323	-300.40674	1.42599	1092.16138	-400.00745	58.5777	1046.5199	-491.42761							231.90962	473.03464	1687.9071																					 
